<svg xmlns="http://www.w3.org/2000/svg" xmlns:xlink="http://www.w3.org/1999/xlink" width="300" zoomAndPan="magnify" viewBox="0 0 375 374.999991" height="300" preserveAspectRatio="xMidYMid meet" version="1.0"><defs><g/><clipPath id="331c1054ed"><path d="M 11.5 120.113281 L 146.269531 120.113281 L 146.269531 254.886719 L 11.5 254.886719 Z M 11.5 120.113281 " clip-rule="nonzero"/></clipPath><clipPath id="8738ef4055"><path d="M 146.269531 187.5 C 146.269531 224.714844 116.101562 254.886719 78.882812 254.886719 C 41.667969 254.886719 11.5 224.714844 11.5 187.5 C 11.5 150.285156 41.667969 120.113281 78.882812 120.113281 C 116.101562 120.113281 146.269531 150.285156 146.269531 187.5 Z M 146.269531 187.5 " clip-rule="nonzero"/></clipPath><clipPath id="1980cb1dea"><path d="M 11.5 120.113281 L 146.261719 120.113281 L 146.261719 254.875 L 11.5 254.875 Z M 11.5 120.113281 " clip-rule="nonzero"/></clipPath><clipPath id="2493bc90ad"><path d="M 146.261719 187.496094 C 146.261719 224.707031 116.09375 254.875 78.878906 254.875 C 41.667969 254.875 11.5 224.707031 11.5 187.496094 C 11.5 150.28125 41.667969 120.113281 78.878906 120.113281 C 116.09375 120.113281 146.261719 150.28125 146.261719 187.496094 Z M 146.261719 187.496094 " clip-rule="nonzero"/></clipPath><clipPath id="788425f58c"><path d="M 37.40625 150.472656 L 120.085938 150.472656 L 120.085938 231.273438 L 37.40625 231.273438 Z M 37.40625 150.472656 " clip-rule="nonzero"/></clipPath></defs><g clip-path="url(#331c1054ed)"><g clip-path="url(#8738ef4055)"><path fill="#327cb8" d="M 11.5 120.113281 L 146.269531 120.113281 L 146.269531 254.886719 L 11.5 254.886719 Z M 11.5 120.113281 " fill-opacity="1" fill-rule="nonzero"/></g></g><g clip-path="url(#1980cb1dea)"><g clip-path="url(#2493bc90ad)"><path stroke-linecap="butt" transform="matrix(1.879035, 0, 0, 1.879035, 11.498623, 120.114844)" fill="none" stroke-linejoin="miter" d="M 71.719308 35.859496 C 71.719308 55.662712 55.664276 71.717744 35.858981 71.717744 C 16.055765 71.717744 0.000732639 55.662712 0.000732639 35.859496 C 0.000732639 16.054201 16.055765 -0.000831737 35.858981 -0.000831737 C 55.664276 -0.000831737 71.719308 16.054201 71.719308 35.859496 Z M 71.719308 35.859496 " stroke="#e4e4e4" stroke-width="3.193128" stroke-opacity="1" stroke-miterlimit="4"/></g></g><g clip-path="url(#788425f58c)"><path fill="#ffffff" d="M 112.175781 150.472656 L 76.46875 150.472656 C 71.53125 151.777344 68.515625 154.773438 68.175781 160.207031 C 68.210938 161.253906 68.242188 162.300781 68.277344 163.335938 C 68.277344 165.246094 68.265625 167.027344 68.277344 168.816406 C 68.277344 171.570312 68.253906 174.339844 68.265625 177.097656 L 45.558594 177.097656 C 44.585938 177.300781 43.660156 177.632812 42.78125 178.09375 C 41.902344 178.554688 41.101562 179.128906 40.382812 179.8125 C 39.664062 180.5 39.050781 181.269531 38.546875 182.125 C 38.042969 182.980469 37.664062 183.890625 37.410156 184.851562 L 37.410156 208.121094 C 37.546875 209.332031 37.945312 210.445312 38.617188 211.460938 C 39.59375 212.816406 40.859375 213.796875 42.417969 214.398438 C 43.914062 215.117188 45.488281 215.480469 47.144531 215.492188 L 49.746094 215.492188 L 49.746094 222.894531 C 49.8125 225.640625 49.890625 228.398438 49.957031 231.152344 C 51.285156 229.894531 52.421875 228.792969 53.3125 227.925781 C 56.101562 225.191406 57.464844 223.796875 59.152344 221.996094 C 60.582031 220.488281 60.648438 220.398438 61.324219 219.699219 C 64.40625 216.480469 65.21875 216.097656 65.632812 215.929688 C 66.476562 215.570312 67.351562 215.410156 68.265625 215.445312 C 72.070312 215.59375 75.882812 215.511719 79.699219 215.492188 C 80.347656 215.519531 80.992188 215.480469 81.632812 215.371094 C 82.273438 215.265625 82.894531 215.09375 83.5 214.859375 C 84.105469 214.621094 84.679688 214.328125 85.222656 213.972656 C 85.765625 213.613281 86.265625 213.207031 86.726562 212.746094 C 87.183594 212.289062 87.589844 211.785156 87.941406 211.242188 C 88.296875 210.695312 88.589844 210.121094 88.824219 209.515625 C 89.058594 208.910156 89.226562 208.285156 89.332031 207.644531 C 89.4375 207.003906 89.472656 206.359375 89.445312 205.710938 C 89.476562 202.292969 89.453125 198.859375 89.453125 195.4375 L 89.453125 189.96875 L 89.488281 188.820312 C 90.394531 188.785156 91.265625 188.949219 92.097656 189.304688 C 92.503906 189.472656 93.316406 189.847656 96.398438 193.074219 C 97.074219 193.773438 97.152344 193.863281 98.570312 195.371094 C 100.269531 197.171875 101.628906 198.566406 104.421875 201.300781 C 105.296875 202.167969 106.433594 203.269531 107.773438 204.53125 C 107.839844 201.773438 107.910156 199.019531 107.976562 196.269531 L 107.976562 188.867188 L 110.585938 188.867188 C 112.242188 188.855469 113.8125 188.492188 115.300781 187.777344 C 116.859375 187.171875 118.128906 186.191406 119.105469 184.839844 C 119.78125 183.816406 120.183594 182.699219 120.320312 181.484375 L 120.320312 158.226562 C 120.070312 157.265625 119.691406 156.359375 119.183594 155.503906 C 118.679688 154.648438 118.066406 153.878906 117.347656 153.191406 C 116.628906 152.507812 115.828125 151.933594 114.949219 151.472656 C 114.070312 151.011719 113.144531 150.675781 112.175781 150.472656 Z M 86.339844 205.710938 C 86.371094 206.15625 86.351562 206.601562 86.289062 207.042969 C 86.226562 207.488281 86.117188 207.917969 85.960938 208.335938 C 85.804688 208.753906 85.605469 209.152344 85.363281 209.527344 C 85.121094 209.902344 84.84375 210.25 84.527344 210.566406 C 84.210938 210.882812 83.867188 211.160156 83.492188 211.402344 C 83.113281 211.644531 82.71875 211.84375 82.300781 212.003906 C 81.882812 212.160156 81.449219 212.269531 81.007812 212.335938 C 80.566406 212.398438 80.121094 212.414062 79.675781 212.386719 C 75.277344 212.417969 70.886719 212.441406 66.488281 212.363281 C 65.84375 212.328125 65.222656 212.433594 64.628906 212.683594 C 64.03125 212.933594 63.519531 213.296875 63.089844 213.78125 C 61.46875 215.445312 59.667969 216.941406 58.183594 218.730469 C 56.507812 220.746094 54.660156 222.597656 52.648438 224.277344 C 52.679688 223.402344 52.804688 219.261719 52.863281 214.738281 C 52.9375 214.023438 52.742188 213.390625 52.277344 212.847656 C 51.769531 212.453125 51.199219 212.300781 50.566406 212.386719 C 49.40625 212.429688 48.238281 212.40625 47.078125 212.386719 C 46.640625 212.402344 46.203125 212.375 45.773438 212.300781 C 45.339844 212.230469 44.917969 212.113281 44.511719 211.953125 C 44.101562 211.789062 43.714844 211.589844 43.351562 211.347656 C 42.984375 211.105469 42.648438 210.828125 42.339844 210.519531 C 42.03125 210.207031 41.757812 209.867188 41.519531 209.496094 C 41.285156 209.128906 41.085938 208.738281 40.929688 208.328125 C 40.777344 207.917969 40.664062 207.496094 40.597656 207.0625 C 40.527344 206.628906 40.503906 206.195312 40.527344 205.757812 C 40.496094 199.5 40.496094 193.238281 40.527344 186.964844 C 40.503906 186.527344 40.523438 186.089844 40.585938 185.65625 C 40.652344 185.222656 40.761719 184.796875 40.914062 184.386719 C 41.070312 183.976562 41.261719 183.582031 41.496094 183.210938 C 41.734375 182.839844 42.003906 182.5 42.308594 182.183594 C 42.617188 181.871094 42.953125 181.589844 43.316406 181.347656 C 43.683594 181.101562 44.070312 180.898438 44.476562 180.734375 C 44.882812 180.570312 45.304688 180.449219 45.738281 180.375 C 46.167969 180.296875 46.605469 180.265625 47.042969 180.28125 C 54.144531 180.246094 61.246094 180.234375 68.34375 180.246094 C 68.398438 181.035156 68.554688 181.800781 68.804688 182.546875 C 69.058594 183.292969 69.398438 183.996094 69.832031 184.65625 C 70.265625 185.316406 70.773438 185.910156 71.359375 186.4375 C 71.945312 186.964844 72.585938 187.410156 73.285156 187.777344 C 74.777344 188.515625 76.355469 188.878906 78.023438 188.867188 C 79.28125 188.878906 80.542969 188.890625 81.804688 188.890625 C 83.3125 188.910156 84.832031 188.910156 86.339844 188.890625 C 86.371094 194.492188 86.371094 200.101562 86.339844 205.710938 Z M 117.203125 179.132812 C 117.226562 179.570312 117.203125 180.007812 117.136719 180.441406 C 117.066406 180.875 116.953125 181.296875 116.796875 181.707031 C 116.640625 182.117188 116.445312 182.503906 116.207031 182.875 C 115.96875 183.242188 115.695312 183.582031 115.386719 183.894531 C 115.078125 184.207031 114.742188 184.484375 114.375 184.726562 C 114.007812 184.96875 113.621094 185.167969 113.210938 185.328125 C 112.804688 185.488281 112.382812 185.605469 111.949219 185.679688 C 111.519531 185.75 111.082031 185.777344 110.644531 185.761719 C 109.484375 185.785156 108.3125 185.804688 107.15625 185.761719 C 106.523438 185.671875 105.957031 185.824219 105.457031 186.222656 C 104.988281 186.765625 104.789062 187.398438 104.859375 188.113281 C 104.917969 192.636719 105.050781 196.765625 105.074219 197.65625 C 103.0625 195.96875 101.21875 194.121094 99.539062 192.109375 C 98.0625 190.320312 96.25 188.820312 94.640625 187.15625 C 94.210938 186.671875 93.699219 186.308594 93.101562 186.058594 C 92.5 185.808594 91.878906 185.703125 91.234375 185.738281 C 90.636719 185.75 90.039062 185.761719 89.445312 185.761719 C 88.375 185.773438 87.316406 185.785156 86.25 185.785156 C 83.515625 185.796875 80.78125 185.773438 78.046875 185.761719 C 74.375 185.726562 71.921875 183.65625 71.472656 180.246094 C 71.414062 179.863281 71.382812 179.476562 71.382812 179.089844 L 71.382812 177.097656 C 71.359375 171.492188 71.351562 165.890625 71.382812 160.285156 C 71.355469 159.847656 71.375 159.410156 71.4375 158.976562 C 71.503906 158.542969 71.613281 158.117188 71.765625 157.707031 C 71.921875 157.292969 72.117188 156.902344 72.351562 156.535156 C 72.589844 156.164062 72.859375 155.820312 73.167969 155.507812 C 73.476562 155.195312 73.816406 154.917969 74.183594 154.675781 C 74.550781 154.4375 74.9375 154.234375 75.347656 154.074219 C 75.757812 153.917969 76.179688 153.800781 76.613281 153.730469 C 77.046875 153.660156 77.480469 153.636719 77.921875 153.65625 C 88.835938 153.601562 99.757812 153.601562 110.6875 153.65625 C 111.128906 153.644531 111.5625 153.671875 111.996094 153.75 C 112.429688 153.824219 112.847656 153.945312 113.257812 154.109375 C 113.664062 154.273438 114.050781 154.476562 114.414062 154.722656 C 114.78125 154.964844 115.117188 155.246094 115.421875 155.5625 C 115.730469 155.875 116 156.21875 116.234375 156.589844 C 116.46875 156.960938 116.664062 157.351562 116.816406 157.761719 C 116.972656 158.175781 117.082031 158.597656 117.144531 159.03125 C 117.210938 159.464844 117.230469 159.902344 117.203125 160.339844 C 117.238281 166.609375 117.238281 172.875 117.203125 179.132812 Z M 110.472656 165.652344 L 78.585938 165.652344 C 78.363281 165.652344 78.148438 165.609375 77.941406 165.527344 C 77.734375 165.441406 77.550781 165.316406 77.394531 165.160156 C 77.234375 165 77.113281 164.820312 77.027344 164.613281 C 76.941406 164.40625 76.898438 164.191406 76.898438 163.964844 C 76.898438 163.742188 76.941406 163.527344 77.027344 163.320312 C 77.113281 163.113281 77.234375 162.929688 77.394531 162.773438 C 77.550781 162.613281 77.734375 162.492188 77.941406 162.40625 C 78.148438 162.320312 78.363281 162.277344 78.585938 162.277344 L 110.472656 162.277344 C 110.699219 162.277344 110.914062 162.320312 111.121094 162.40625 C 111.328125 162.492188 111.507812 162.613281 111.667969 162.773438 C 111.824219 162.929688 111.949219 163.113281 112.03125 163.320312 C 112.117188 163.527344 112.160156 163.742188 112.160156 163.964844 C 112.160156 164.191406 112.117188 164.40625 112.03125 164.613281 C 111.949219 164.820312 111.824219 165 111.667969 165.160156 C 111.507812 165.316406 111.328125 165.441406 111.121094 165.527344 C 110.914062 165.609375 110.699219 165.652344 110.472656 165.652344 Z M 99.085938 174.601562 L 79.5625 174.601562 C 79.339844 174.601562 79.125 174.558594 78.917969 174.472656 C 78.710938 174.386719 78.527344 174.265625 78.371094 174.109375 C 78.210938 173.949219 78.089844 173.765625 78.003906 173.558594 C 77.917969 173.351562 77.875 173.136719 77.875 172.914062 C 77.875 172.691406 77.917969 172.476562 78.003906 172.269531 C 78.089844 172.0625 78.210938 171.878906 78.371094 171.71875 C 78.527344 171.5625 78.710938 171.441406 78.917969 171.355469 C 79.125 171.269531 79.339844 171.226562 79.5625 171.226562 L 99.085938 171.226562 C 99.308594 171.226562 99.523438 171.269531 99.730469 171.355469 C 99.9375 171.441406 100.121094 171.5625 100.277344 171.71875 C 100.4375 171.878906 100.558594 172.0625 100.644531 172.269531 C 100.730469 172.476562 100.773438 172.691406 100.773438 172.914062 C 100.773438 173.136719 100.730469 173.351562 100.644531 173.558594 C 100.558594 173.765625 100.4375 173.949219 100.277344 174.109375 C 100.121094 174.265625 99.9375 174.386719 99.730469 174.472656 C 99.523438 174.558594 99.308594 174.601562 99.085938 174.601562 Z M 79.140625 202.40625 L 47.253906 202.40625 C 47.027344 202.40625 46.8125 202.363281 46.605469 202.277344 C 46.398438 202.191406 46.21875 202.070312 46.058594 201.910156 C 45.902344 201.753906 45.777344 201.570312 45.691406 201.363281 C 45.605469 201.15625 45.5625 200.941406 45.5625 200.71875 C 45.5625 200.496094 45.605469 200.277344 45.691406 200.070312 C 45.777344 199.867188 45.902344 199.683594 46.058594 199.523438 C 46.21875 199.367188 46.398438 199.246094 46.605469 199.160156 C 46.8125 199.074219 47.027344 199.03125 47.253906 199.03125 L 79.140625 199.03125 C 79.363281 199.03125 79.578125 199.074219 79.785156 199.160156 C 79.992188 199.246094 80.175781 199.367188 80.332031 199.523438 C 80.492188 199.683594 80.613281 199.867188 80.699219 200.070312 C 80.785156 200.277344 80.828125 200.496094 80.828125 200.71875 C 80.828125 200.941406 80.785156 201.15625 80.699219 201.363281 C 80.613281 201.570312 80.492188 201.753906 80.332031 201.910156 C 80.175781 202.070312 79.992188 202.191406 79.785156 202.277344 C 79.578125 202.363281 79.363281 202.40625 79.140625 202.40625 Z M 47.386719 189.96875 L 66.910156 189.96875 C 67.132812 189.96875 67.351562 190.011719 67.554688 190.097656 C 67.761719 190.183594 67.945312 190.304688 68.105469 190.464844 C 68.261719 190.621094 68.382812 190.804688 68.46875 191.011719 C 68.554688 191.21875 68.597656 191.433594 68.597656 191.65625 C 68.597656 191.882812 68.554688 192.097656 68.46875 192.304688 C 68.382812 192.511719 68.261719 192.691406 68.105469 192.851562 C 67.945312 193.007812 67.761719 193.132812 67.554688 193.21875 C 67.351562 193.300781 67.132812 193.34375 66.910156 193.34375 L 47.386719 193.34375 C 47.164062 193.34375 46.949219 193.300781 46.742188 193.21875 C 46.535156 193.132812 46.351562 193.007812 46.195312 192.851562 C 46.035156 192.691406 45.914062 192.511719 45.828125 192.304688 C 45.742188 192.097656 45.699219 191.882812 45.699219 191.65625 C 45.699219 191.433594 45.742188 191.21875 45.828125 191.011719 C 45.914062 190.804688 46.035156 190.621094 46.195312 190.464844 C 46.351562 190.304688 46.535156 190.183594 46.742188 190.097656 C 46.949219 190.011719 47.164062 189.96875 47.386719 189.96875 Z M 47.386719 189.96875 " fill-opacity="1" fill-rule="nonzero"/></g><g fill="#327dbb" fill-opacity="1"><g transform="translate(164.852132, 213.483395)"><g><path d="M 35.109375 -33.859375 C 33.203125 -33.859375 31.789062 -34.867188 30.875 -36.890625 C 30.445312 -37.835938 30.023438 -38.410156 29.609375 -38.609375 C 29.285156 -38.753906 28.445312 -38.828125 27.09375 -38.828125 C 24.425781 -38.828125 21.34375 -36.75 17.84375 -32.59375 C 12.945312 -26.78125 10.5 -21.34375 10.5 -16.28125 C 10.5 -13.96875 11.269531 -11.984375 12.8125 -10.328125 C 14.363281 -8.679688 16.21875 -7.859375 18.375 -7.859375 C 20.476562 -7.859375 22.609375 -8.410156 24.765625 -9.515625 C 25.535156 -9.910156 27.148438 -10.945312 29.609375 -12.625 C 31.253906 -13.726562 32.503906 -14.28125 33.359375 -14.28125 C 34.628906 -14.28125 35.707031 -13.8125 36.59375 -12.875 C 37.425781 -12.007812 37.84375 -11.015625 37.84375 -9.890625 C 37.84375 -8.640625 37.289062 -7.546875 36.1875 -6.609375 C 30.351562 -1.691406 24.414062 0.765625 18.375 0.765625 C 13.601562 0.765625 9.578125 -0.972656 6.296875 -4.453125 C 3.160156 -7.796875 1.59375 -11.738281 1.59375 -16.28125 C 1.59375 -23.382812 4.695312 -30.632812 10.90625 -38.03125 C 16.1875 -44.300781 21.582031 -47.4375 27.09375 -47.4375 C 28.03125 -47.4375 28.875 -47.40625 29.625 -47.34375 C 30.375 -47.28125 31.035156 -47.1875 31.609375 -47.0625 C 32.535156 -47.976562 33.660156 -48.4375 34.984375 -48.4375 C 37.140625 -48.4375 38.472656 -47.191406 38.984375 -44.703125 C 39.347656 -42.921875 39.53125 -40.847656 39.53125 -38.484375 C 39.53125 -37.421875 39.222656 -36.453125 38.609375 -35.578125 C 37.796875 -34.429688 36.628906 -33.859375 35.109375 -33.859375 Z M 35.109375 -33.859375 "/></g></g></g><g fill="#327dbb" fill-opacity="1"><g transform="translate(205.138958, 213.483395)"><g><path d="M 12.6875 -29.09375 C 14.238281 -30.625 15.894531 -31.765625 17.65625 -32.515625 C 19.425781 -33.265625 21.320312 -33.640625 23.34375 -33.640625 C 26.96875 -33.640625 29.570312 -32.625 31.15625 -30.59375 C 32.34375 -29.0625 33.066406 -26.71875 33.328125 -23.5625 C 33.429688 -20.957031 33.546875 -18.335938 33.671875 -15.703125 C 34.015625 -12.296875 34.226562 -10.21875 34.3125 -9.46875 C 34.601562 -7.125 34.960938 -5.070312 35.390625 -3.3125 C 35.492188 -2.863281 35.546875 -2.46875 35.546875 -2.125 C 35.546875 -0.9375 35.09375 0.0390625 34.1875 0.8125 C 33.289062 1.582031 32.238281 1.96875 31.03125 1.96875 C 28.894531 1.96875 27.507812 0.910156 26.875 -1.203125 C 26.363281 -2.921875 25.894531 -5.335938 25.46875 -8.453125 C 25.09375 -11.441406 24.90625 -13.90625 24.90625 -15.84375 C 24.90625 -16.363281 24.929688 -17.160156 24.984375 -18.234375 C 25.035156 -19.304688 25.0625 -20.109375 25.0625 -20.640625 C 25.0625 -22.203125 25.039062 -23.113281 25 -23.375 C 24.800781 -24.539062 24.25 -25.125 23.34375 -25.125 C 20.988281 -25.125 18.859375 -24.039062 16.953125 -21.875 C 15.972656 -20.789062 14.632812 -18.734375 12.9375 -15.703125 C 12.9375 -8.035156 12.566406 -3.414062 11.828125 -1.84375 C 11.003906 -0.101562 9.691406 0.765625 7.890625 0.765625 C 6.703125 0.765625 5.644531 0.367188 4.71875 -0.421875 C 3.800781 -1.222656 3.34375 -2.207031 3.34375 -3.375 C 3.34375 -3.769531 3.457031 -4.332031 3.6875 -5.0625 C 3.832031 -5.519531 3.960938 -8.378906 4.078125 -13.640625 C 3.960938 -17.898438 3.984375 -24.992188 4.140625 -34.921875 L 4.203125 -35.96875 C 4.328125 -38.46875 4.390625 -40.140625 4.390625 -40.984375 C 4.390625 -41.640625 4.285156 -42.609375 4.078125 -43.890625 C 3.878906 -45.179688 3.78125 -46.15625 3.78125 -46.8125 C 3.78125 -48.019531 4.210938 -49.007812 5.078125 -49.78125 C 5.953125 -50.550781 7.003906 -50.9375 8.234375 -50.9375 C 10.335938 -50.9375 11.75 -49.816406 12.46875 -47.578125 C 12.863281 -46.296875 13.0625 -44.34375 13.0625 -41.71875 C 13.0625 -39.601562 13 -37.453125 12.875 -35.265625 C 12.75 -33.191406 12.6875 -31.132812 12.6875 -29.09375 Z M 12.6875 -29.09375 "/></g></g></g><g fill="#327dbb" fill-opacity="1"><g transform="translate(242.754836, 213.483395)"><g><path d="M 30.6875 2.09375 C 29.707031 2.09375 28.160156 1.035156 26.046875 -1.078125 C 24.097656 -0.148438 22.378906 0.550781 20.890625 1.03125 C 19.410156 1.507812 18.148438 1.75 17.109375 1.75 C 11.992188 1.75 8.160156 0.382812 5.609375 -2.34375 C 3.054688 -5.082031 1.78125 -9.175781 1.78125 -14.625 C 1.78125 -19.738281 3.664062 -24.113281 7.4375 -27.75 C 11.207031 -31.382812 15.722656 -33.203125 20.984375 -33.203125 C 23.003906 -33.203125 25.335938 -32.628906 27.984375 -31.484375 C 31.179688 -30.109375 32.78125 -28.503906 32.78125 -26.671875 C 32.78125 -25.910156 32.535156 -25.242188 32.046875 -24.671875 C 31.835938 -23.828125 31.675781 -22.765625 31.5625 -21.484375 C 31.445312 -20.203125 31.390625 -18.703125 31.390625 -16.984375 C 31.390625 -12.929688 31.675781 -10.015625 32.25 -8.234375 C 32.3125 -8.046875 32.796875 -6.941406 33.703125 -4.921875 C 34.535156 -3.097656 34.953125 -2.0625 34.953125 -1.8125 C 34.953125 -0.6875 34.519531 0.242188 33.65625 0.984375 C 32.800781 1.722656 31.8125 2.09375 30.6875 2.09375 Z M 22.796875 -19.71875 C 22.796875 -20.394531 22.84375 -21.171875 22.9375 -22.046875 C 23.039062 -22.929688 23.1875 -23.914062 23.375 -25 C 22.945312 -25.207031 22.566406 -25.359375 22.234375 -25.453125 C 21.910156 -25.546875 21.632812 -25.59375 21.40625 -25.59375 C 18.519531 -25.59375 15.992188 -24.460938 13.828125 -22.203125 C 11.671875 -19.953125 10.59375 -17.34375 10.59375 -14.375 C 10.59375 -11.53125 11.097656 -9.390625 12.109375 -7.953125 C 13.128906 -6.523438 14.65625 -5.8125 16.6875 -5.8125 C 18.007812 -5.8125 19.257812 -6.03125 20.4375 -6.46875 C 21.613281 -6.90625 22.71875 -7.546875 23.75 -8.390625 C 23.113281 -13.441406 22.796875 -17.21875 22.796875 -19.71875 Z M 22.796875 -19.71875 "/></g></g></g><g fill="#327dbb" fill-opacity="1"><g transform="translate(278.939847, 213.483395)"><g><path d="M 25.6875 -25.59375 C 25.25 -25.59375 24.726562 -25.609375 24.125 -25.640625 C 23.519531 -25.671875 22.992188 -25.6875 22.546875 -25.6875 C 21.671875 -25.6875 20.664062 -25.601562 19.53125 -25.4375 C 19.90625 -16.875 20.09375 -11.28125 20.09375 -8.65625 C 20.09375 -8.375 20.101562 -7.859375 20.125 -7.109375 C 20.144531 -6.359375 20.15625 -5.75 20.15625 -5.28125 C 20.15625 -0.40625 18.617188 2.03125 15.546875 2.03125 C 14.378906 2.03125 13.375 1.671875 12.53125 0.953125 C 11.59375 0.191406 11.125 -0.757812 11.125 -1.90625 C 11.125 -2.664062 11.15625 -3.804688 11.21875 -5.328125 C 11.289062 -6.859375 11.328125 -8.007812 11.328125 -8.78125 C 11.328125 -11.34375 11.132812 -16.832031 10.75 -25.25 C 9.4375 -25.3125 7.445312 -25.484375 4.78125 -25.765625 C 2.125 -26.054688 0.796875 -27.429688 0.796875 -29.890625 C 0.796875 -31.078125 1.195312 -32.082031 2 -32.90625 C 2.8125 -33.738281 3.851562 -34.15625 5.125 -34.15625 C 5.90625 -34.15625 7.707031 -34.023438 10.53125 -33.765625 C 10.507812 -34.441406 10.453125 -35.566406 10.359375 -37.140625 C 10.273438 -38.492188 10.234375 -39.546875 10.234375 -40.296875 C 10.234375 -41.484375 10.664062 -42.46875 11.53125 -43.25 C 12.40625 -44.03125 13.457031 -44.421875 14.6875 -44.421875 C 17.820312 -44.421875 19.390625 -41.78125 19.390625 -36.5 L 19.328125 -33.890625 C 20.648438 -34.085938 21.722656 -34.1875 22.546875 -34.1875 C 24.984375 -34.1875 26.644531 -34.023438 27.53125 -33.703125 C 29.226562 -33.109375 30.078125 -31.816406 30.078125 -29.828125 C 30.078125 -28.617188 29.664062 -27.609375 28.84375 -26.796875 C 28.019531 -25.992188 26.96875 -25.59375 25.6875 -25.59375 Z M 25.6875 -25.59375 "/></g></g></g><g fill="#327dbb" fill-opacity="1"><g transform="translate(309.623974, 213.483395)"><g><path d="M 13.03125 -4.671875 C 13.03125 -0.640625 11.570312 1.375 8.65625 1.375 C 7.375 1.375 6.320312 0.96875 5.5 0.15625 C 4.675781 -0.644531 4.265625 -1.679688 4.265625 -2.953125 L 4.265625 -46.9375 C 4.265625 -48.164062 4.707031 -49.171875 5.59375 -49.953125 C 6.445312 -50.671875 7.5 -51.03125 8.75 -51.03125 C 10 -51.03125 11.023438 -50.65625 11.828125 -49.90625 C 12.628906 -49.15625 13.03125 -48.164062 13.03125 -46.9375 Z M 13.03125 -4.671875 "/></g></g></g><g fill="#327dbb" fill-opacity="1"><g transform="translate(327.462103, 213.483395)"><g><path d="M 34.859375 -26.875 C 32.546875 -22.0625 28.882812 -14.503906 23.875 -4.203125 C 21.164062 1.335938 19.101562 5.929688 17.6875 9.578125 C 17.238281 10.890625 16.535156 12.835938 15.578125 15.421875 C 14.816406 17.410156 13.460938 18.40625 11.515625 18.40625 C 10.304688 18.40625 9.242188 18.015625 8.328125 17.234375 C 7.421875 16.453125 6.96875 15.46875 6.96875 14.28125 C 6.96875 12.3125 9.210938 6.46875 13.703125 -3.25 C 11.367188 -7.84375 7.671875 -14.613281 2.609375 -23.5625 C 2.097656 -24.363281 1.578125 -25.179688 1.046875 -26.015625 C 0.472656 -26.984375 0.1875 -27.875 0.1875 -28.6875 C 0.1875 -29.832031 0.640625 -30.835938 1.546875 -31.703125 C 2.460938 -32.566406 3.515625 -33 4.703125 -33 C 6.109375 -33 7.203125 -32.484375 7.984375 -31.453125 C 10.992188 -27.441406 14.5 -21.410156 18.5 -13.359375 C 20.769531 -18.378906 22.148438 -21.410156 22.640625 -22.453125 C 24.148438 -25.609375 25.625 -28.382812 27.0625 -30.78125 C 27.96875 -32.3125 29.21875 -33.078125 30.8125 -33.078125 C 32 -33.078125 33.054688 -32.671875 33.984375 -31.859375 C 34.921875 -31.054688 35.390625 -30.070312 35.390625 -28.90625 C 35.390625 -28.289062 35.210938 -27.613281 34.859375 -26.875 Z M 34.859375 -26.875 "/></g></g></g></svg>